<svg width="652" height="591" viewBox="0 0 652 591" fill="none" xmlns="http://www.w3.org/2000/svg">
<g clip-path="url(#clip0_2_173)">
<path d="M624.172 480.489H0V0H624.172V480.489Z" fill="white"/>
<path d="M624.172 480.489H0V0H624.172V480.489ZM9.222 471.267H614.95V9.222H9.222V471.267Z" fill="#E5E5E5"/>
<path d="M136.355 362.197H89.098C87.8184 362.196 86.5915 361.687 85.6866 360.782C84.7817 359.877 84.2726 358.651 84.271 357.371V292.226C84.2726 290.946 84.7817 289.72 85.6866 288.815C86.5915 287.91 87.8184 287.401 89.098 287.4H136.355C137.635 287.401 138.862 287.91 139.767 288.815C140.672 289.72 141.181 290.947 141.182 292.227V357.371C141.181 358.651 140.672 359.878 139.767 360.783C138.862 361.688 137.635 362.197 136.355 362.198V362.197Z" fill="#E6E6E6"/>
<path d="M222.535 362.197H175.278C173.998 362.196 172.771 361.687 171.867 360.782C170.962 359.877 170.453 358.651 170.451 357.371V230.437C170.452 229.157 170.961 227.93 171.866 227.025C172.771 226.12 173.998 225.611 175.278 225.61H222.535C223.815 225.611 225.041 226.12 225.946 227.025C226.851 227.93 227.36 229.156 227.362 230.436V357.37C227.361 358.65 226.852 359.877 225.947 360.782C225.042 361.687 223.815 362.196 222.535 362.197Z" fill="#E6E6E6"/>
<path d="M308.715 362.197H261.457C260.177 362.196 258.951 361.687 258.046 360.782C257.141 359.877 256.632 358.651 256.63 357.371V292.226C256.632 290.946 257.141 289.72 258.046 288.815C258.951 287.91 260.177 287.401 261.457 287.4H308.714C309.994 287.401 311.221 287.91 312.126 288.815C313.031 289.72 313.54 290.947 313.541 292.227V357.371C313.539 358.65 313.03 359.877 312.126 360.782C311.221 361.687 309.994 362.195 308.715 362.197Z" fill="#E6E6E6"/>
<path d="M394.894 362.197H347.637C346.387 362.224 345.176 361.754 344.272 360.89C343.367 360.027 342.841 358.839 342.81 357.589V205.828C342.841 204.578 343.367 203.39 344.272 202.527C345.176 201.663 346.387 201.193 347.637 201.22H394.894C396.145 201.193 397.355 201.663 398.26 202.527C399.164 203.39 399.69 204.578 399.721 205.828V357.589C399.69 358.839 399.164 360.027 398.26 360.89C397.355 361.754 396.145 362.224 394.894 362.197Z" fill="#E6E6E6"/>
<path d="M481.074 362.197H433.817C432.537 362.196 431.311 361.687 430.406 360.782C429.501 359.877 428.992 358.651 428.99 357.371V162.143C428.991 160.863 429.5 159.636 430.405 158.731C431.31 157.826 432.537 157.317 433.817 157.316H481.074C482.354 157.317 483.58 157.826 484.485 158.731C485.39 159.636 485.899 160.862 485.901 162.142V357.37C485.9 358.65 485.391 359.877 484.486 360.782C483.581 361.687 482.354 362.196 481.074 362.197Z" fill="#F2F2F2"/>
<path d="M112.726 267.887C118.114 267.887 122.482 263.519 122.482 258.131C122.482 252.743 118.114 248.375 112.726 248.375C107.338 248.375 102.97 252.743 102.97 258.131C102.97 263.519 107.338 267.887 112.726 267.887Z" fill="#090814"/>
<path d="M198.906 204.471C204.294 204.471 208.662 200.103 208.662 194.715C208.662 189.327 204.294 184.959 198.906 184.959C193.518 184.959 189.15 189.327 189.15 194.715C189.15 200.103 193.518 204.471 198.906 204.471Z" fill="#090814"/>
<path d="M285.086 267.887C290.474 267.887 294.842 263.519 294.842 258.131C294.842 252.743 290.474 248.375 285.086 248.375C279.698 248.375 275.33 252.743 275.33 258.131C275.33 263.519 279.698 267.887 285.086 267.887Z" fill="#090814"/>
<path d="M371.266 173.576C376.654 173.576 381.022 169.208 381.022 163.82C381.022 158.432 376.654 154.064 371.266 154.064C365.878 154.064 361.51 158.432 361.51 163.82C361.51 169.208 365.878 173.576 371.266 173.576Z" fill="#090814"/>
<path d="M457.445 137.803C462.833 137.803 467.201 133.435 467.201 128.047C467.201 122.659 462.833 118.291 457.445 118.291C452.057 118.291 447.689 122.659 447.689 128.047C447.689 133.435 452.057 137.803 457.445 137.803Z" fill="#090814"/>
<path d="M285.292 260.316L198.906 195.616L113.706 259.435L111.756 256.835L198.91 191.555L284.884 255.955L370.319 162.461L370.662 162.322L456.841 127.599L458.057 130.616L372.216 165.19L285.292 260.316Z" fill="#090814"/>
<path d="M578 574.714H563.317L556.333 518.094H578V574.714Z" fill="#FFB6B6"/>
<path d="M525.535 335.064L533.869 462.981L561.85 553.021L589.83 554.496L572.645 444.796L577.418 371.921C577.418 371.921 600.045 355.672 587.534 336.113L525.535 335.064Z" fill="#090814"/>
<path d="M587.575 574.714H572.9L565.917 518.094H587.582L587.575 574.714Z" fill="#FFB6B6"/>
<path d="M581.539 589.449H540.971C537.483 589.442 534.041 588.656 530.896 587.149L523.413 583.549C522.589 583.153 521.905 582.515 521.453 581.72C521.001 580.926 520.803 580.012 520.884 579.101C520.966 578.19 521.324 577.326 521.91 576.624C522.495 575.922 523.282 575.416 524.163 575.173L539.594 570.9L565.984 557.026L566.003 557.126C566.497 559.626 567.266 563.403 567.361 563.626C570.067 566.731 572.85 568.156 575.623 567.871C580.466 567.377 583.685 561.784 583.723 561.727L583.752 561.68H583.8C584.293 561.703 584.775 561.838 585.208 562.074C585.641 562.311 586.015 562.644 586.3 563.047C587.4 564.709 586.727 567.282 586.623 567.662C587.943 568.954 588.541 576.19 588.589 576.769C590.507 578.801 591.409 580.748 591.295 582.562C591.192 583.437 590.906 584.28 590.454 585.036C590.002 585.792 589.396 586.444 588.674 586.949C586.65 588.559 584.138 589.43 581.552 589.418L581.539 589.449Z" fill="#090814" stroke="#06060F" stroke-width="1.5" stroke-miterlimit="10"/>
<path d="M621.79 149.701C621.789 144.696 620.4 139.79 617.779 135.527C615.157 131.263 611.406 127.81 606.94 125.55C602.475 123.29 597.471 122.311 592.483 122.723C587.495 123.135 582.719 124.921 578.685 127.884C574.651 130.846 571.517 134.868 569.631 139.504C567.745 144.139 567.18 149.207 568 154.144C568.819 159.081 570.991 163.695 574.274 167.472C577.558 171.25 581.823 174.043 586.598 175.543L591.836 210.143L618.525 187.901C614.886 183.113 611.906 177.859 609.665 172.278C613.396 169.811 616.457 166.458 618.573 162.517C620.689 158.577 621.794 154.174 621.79 149.701Z" fill="#FFB9B9"/>
<path d="M535.114 335.064L543.448 462.981L571.304 553.657L593.104 554.533L582.221 444.799L586.994 371.924C586.994 371.924 609.621 355.675 597.11 336.116L535.114 335.064Z" fill="#090814"/>
<path d="M580.291 355.626C555.291 355.626 525.871 340.349 524.166 339.452L523.692 339.202L581.065 192.836L609.479 179.412C611.667 178.38 614.091 177.95 616.5 178.167C618.91 178.383 621.218 179.239 623.187 180.645C625.156 182.051 626.713 183.957 627.7 186.166C628.687 188.375 629.066 190.807 628.799 193.212L617.523 294.366L605.753 346.757L605.628 346.88C599.13 353.298 590.047 355.626 580.291 355.626Z" fill="#3B82F6"/>
<path d="M488.611 258.734C490.098 257.791 491.773 257.186 493.519 256.961C495.264 256.735 497.038 256.896 498.716 257.43C500.393 257.965 501.932 258.861 503.226 260.055C504.519 261.249 505.535 262.712 506.202 264.341L548.93 262.007L537.72 281.207L498.867 280.479C496.056 281.417 492.999 281.291 490.275 280.126C487.551 278.961 485.348 276.838 484.085 274.158C482.821 271.478 482.585 268.427 483.42 265.584C484.254 262.741 486.103 260.303 488.615 258.732L488.611 258.734Z" fill="#FFB6B6"/>
<path d="M572.924 288.792L530.109 287.699L530.661 259.378L550.907 252.934L584.116 206.357C585.78 204.027 587.893 202.054 590.332 200.555C592.771 199.056 595.486 198.06 598.316 197.628C601.146 197.196 604.034 197.335 606.81 198.037C609.585 198.74 612.192 199.991 614.475 201.718C616.759 203.445 618.673 205.612 620.105 208.091C621.537 210.57 622.457 213.311 622.812 216.152C623.167 218.993 622.949 221.876 622.171 224.631C621.392 227.386 620.07 229.958 618.281 232.193L572.924 288.792Z" fill="#3B82F6"/>
<path d="M561.721 121.863C564.592 118.919 568.323 116.961 572.377 116.271C576.328 115.421 580.663 115.157 583.824 112.679C587.416 109.817 588.997 104.379 593.403 103.172C595.32 102.787 597.306 102.944 599.138 103.627C606.179 105.751 612.43 109.919 617.098 115.601C618.198 117.229 619.601 118.632 621.229 119.732C622.203 120.144 623.154 120.608 624.079 121.121C625.094 121.921 625.892 122.963 626.402 124.15C629.579 130.563 630.311 137.914 628.462 144.828C627.362 148.911 625.373 152.695 624.199 156.802C623.025 160.909 617.599 168.722 616.33 166.782C615.061 164.842 613.43 163.034 612.738 160.795C611.383 156.395 612.607 151.959 609.161 148.895C607.03 147.003 603.174 145.734 601.725 148.177C601.15 149.123 601.186 150.32 600.695 151.302C599.725 153.218 596.923 153.602 595.067 152.502C593.278 151.267 592.021 149.403 591.547 147.282C588.757 137.847 584.004 131.908 573.91 135.943C570.15 137.452 565.72 138.469 562.104 135.883C557.339 132.483 558.309 125.742 561.721 121.863Z" fill="#090814"/>
<path d="M497.837 377.762H450.58C449.3 377.761 448.074 377.252 447.169 376.347C446.264 375.442 445.755 374.216 445.753 372.936V177.709C445.755 176.429 446.264 175.203 447.169 174.298C448.074 173.393 449.3 172.884 450.58 172.883H497.837C499.117 172.884 500.344 173.393 501.249 174.298C502.154 175.203 502.663 176.43 502.664 177.71V372.936C502.662 374.216 502.153 375.442 501.248 376.347C500.343 377.252 499.117 377.761 497.837 377.762Z" fill="#3B82F6"/>
<path d="M487.414 275.497C488.901 274.554 490.576 273.949 492.322 273.724C494.067 273.498 495.841 273.659 497.519 274.193C499.196 274.728 500.735 275.624 502.029 276.818C503.322 278.012 504.338 279.475 505.005 281.104L547.729 278.77L536.519 297.97L497.666 297.242C494.855 298.18 491.798 298.054 489.074 296.889C486.35 295.724 484.147 293.601 482.884 290.921C481.62 288.241 481.384 285.19 482.218 282.347C483.053 279.504 484.902 277.066 487.414 275.495V275.497Z" fill="#FFB6B6"/>
<path d="M571.73 305.557L528.915 304.464L529.467 276.143L549.713 269.699L582.922 223.121C584.582 220.783 586.695 218.802 589.135 217.296C591.576 215.789 594.293 214.788 597.128 214.352C599.962 213.915 602.855 214.052 605.635 214.754C608.415 215.456 611.027 216.709 613.314 218.439C615.601 220.168 617.517 222.34 618.95 224.824C620.383 227.308 621.302 230.055 621.653 232.901C622.005 235.747 621.781 238.634 620.996 241.392C620.211 244.15 618.881 246.723 617.083 248.957L571.73 305.557Z" fill="#3B82F6"/>
<path d="M651.376 590.646H467.684C467.418 590.646 467.202 590.11 467.202 589.446C467.202 588.782 467.418 588.246 467.684 588.246H651.376C651.642 588.246 651.858 588.782 651.858 589.446C651.858 590.11 651.64 590.646 651.376 590.646Z" fill="#CACACA"/>
</g>
<defs>
<clipPath id="clip0_2_173">
<rect width="651.858" height="590.646" fill="white"/>
</clipPath>
</defs>
</svg>
