<svg xmlns="http://www.w3.org/2000/svg" version="1.1" xmlns:xlink="http://www.w3.org/1999/xlink" xmlns:svgjs="http://svgjs.dev/svgjs" width="500" height="700" preserveAspectRatio="none" viewBox="0 0 500 700"><g mask="url(&quot;#SvgjsMask1068&quot;)" fill="none"><rect width="500" height="700" x="0" y="0" fill="rgba(59, 130, 246, 1)"></rect><path d="M0,207.413C38.014,204.134,61.385,165.807,95.2,148.134C133.622,128.053,194,136.256,211.795,96.723C229.617,57.129,186.648,16.361,173.082,-24.885C162.242,-57.842,160.817,-93.563,140.065,-121.367C118.388,-150.41,86.244,-167.525,54.111,-184.285C14.99,-204.69,-24.997,-241.74,-67.411,-229.58C-109.792,-217.429,-124.879,-165.319,-146.349,-126.812C-164.005,-95.147,-172.544,-61.288,-180.914,-26.012C-190.151,12.921,-212.391,53.079,-197.878,90.368C-183.267,127.911,-141.046,145.009,-106.372,165.519C-72.894,185.321,-38.752,210.755,0,207.413" fill="#0a5de4"></path><path d="M500 1013.7660000000001C556.944 1004.24 590.505 947.542 640.223 918.191 692.664 887.232 763.1220000000001 885.566 799.671 836.855 838.531 785.064 857.527 713.538 840.693 651.016 824.219 589.831 754.843 563.019 713.102 515.346 671.652 468.006 658.063 384.105 596.33 371.929 533.4110000000001 359.519 490.622 440.453 429.347 459.377 369.426 477.882 292.05 437.298 246.182 480.065 200.981 522.21 207.526 597.727 215.192 659.051 221.764 711.617 268.15700000000004 747.861 285.901 797.776 306.13599999999997 854.698 283.466 927.85 325.996 970.755 368.927 1014.065 439.854 1023.827 500 1013.7660000000001" fill="#7babf9"></path></g><defs><mask id="SvgjsMask1068"><rect width="500" height="700" fill="#ffffff"></rect></mask></defs></svg>